<svg width="207" height="142" fill="none" xmlns="http://www.w3.org/2000/svg"><path fill-rule="evenodd" clip-rule="evenodd" d="M70.77.426c-2.242.68-3.705 1.61-4.306 2.732-.309.577-.65 3.442-.758 6.366-.232 6.262-.799 8.038-7.609 23.846-2.589 6.01-5.014 12.433-5.39 14.273-.375 1.841-.85 3.327-1.055 3.301-.205-.025-1.28-.425-2.39-.89a7.6 7.6 0 00-4.183-.495c-7.368 1.178-17.944 11.583-21.21 20.864-.459 1.306-.835 3.972-.835 5.924 0 5.982 2.895 9.483 10.05 12.158 2.944 1.1 4.217 1.214 13.562 1.216 9.8 0 15.34-.606 24.697-2.705.747-.168-.998.905-3.877 2.383-14.069 7.225-19.95 13.332-27.847 28.916-4.945 9.76-6.333 11.898-9.794 15.089-4.865 4.485-14.262 7.595-23.282 7.704-1.827.023-4.42.25-5.764.506-1.707.325-.643.385 3.528.197 11.586-.52 18.595-2.392 24.082-6.433 4.066-2.994 7.137-7.325 11.746-16.569 4.707-9.44 7.555-13.65 12.376-18.301 4.353-4.197 8.672-7.273 13.947-9.931l3.528-1.778-2.343 2.545c-1.289 1.4-2.241 2.839-2.117 3.197.133.384 1.235.639 2.685.621 3.146-.038 7.283-2.458 12.566-7.349 3.006-2.783 4.576-3.8 7.06-4.577 3.224-1.006 6.304-3.08 6.304-4.244 0-.428 1.52-.638 4.75-.656 5.885-.032 9.774-1.428 13.622-4.888 3.602-3.24 5.436-6.317 8.475-14.224 3.103-8.073 6.435-13.277 11.75-18.355 10.036-9.585 24.155-15.026 51.237-19.744 10.699-1.863 21.249-4.22 22.527-5.033.685-.436.671-.474-.087-.241-2.254.692-19.311 4.197-25.425 5.224-25.25 4.244-41.154 10.904-50.65 21.21-4.982 5.408-6.252 7.714-12.052 21.89-1.839 4.493-6.309 9.585-10.106 11.509-3.663 1.857-9.31 2.734-12.293 1.911-2.381-.657-2.656-1.676-.452-1.676 2.817 0 9.577-6.014 12.644-11.25 2.099-3.581 1.183-3.335-1.873.503-1.496 1.88-3.23 3.878-3.853 4.44-.622.563-1.018 1.207-.879 1.432.139.225-.173.742-.692 1.149-.854.67-.873.65-.199-.21 1.112-1.418.209-1.15-2.023.6-4.079 3.197-4.708 2.963-1.41-.523 10.079-10.655 23.04-30.408 25.189-38.392 1.027-3.813 1.629-11.028 1.188-14.212-.359-2.582-.418-2.214-.439 2.715-.014 3.135-.33 7.166-.704 8.958-1.836 8.811-16.582 31.675-26.54 41.151-2.903 2.764-3.445 3.074-4.435 2.544-1.452-.777-3.236-3.705-3.239-5.316 0-.69-.223-1.117-.493-.95-.65.401-3.539-7.656-4.683-13.058-1.407-6.64-1.674-15.612-.577-19.386.821-2.825 3.652-7.003 4.298-6.342.56.575 1.528 17.022 1.594 27.132.059 8.81.14 9.82.48 5.985.37-4.172-.09-18.102-.978-29.694-.387-5.055-.952-4.47 5.355-5.558 3.828-.66 6.466-1.979 9.748-4.874 3.598-3.172 5.338-6.916 5.338-11.483 0-2.807.246-3.934 1.092-5.01 3.471-4.413 9.704-.478 12.718 8.029.439 1.239.781 1.705.796 1.086.066-2.75-3.734-8.732-6.722-10.578-2.09-1.293-3.59-1.378-5.634-.321-1.939 1.003-2.793 2.954-2.793 6.382 0 4.643-.99 6.912-4.59 10.514-1.804 1.805-4.251 3.736-5.438 4.29-1.773.83-10.128 2.694-10.351 2.31-.036-.06-.36-2.109-.721-4.551-.812-5.493-3.259-13.43-5.104-16.556-1.794-3.038-4.53-5.572-6.852-6.348-2.058-.686-1.964-.684-3.886-.1zm-.176.604c-.86.25-2.136.992-2.835 1.649-1.125 1.057-1.268 1.675-1.244 5.353.04 6.323-1.25 10.455-8.328 26.674-3.355 7.688-4.53 11.003-5.221 14.734l-.476 2.567 6.898 6.214c9.312 8.388 16.021 15.985 15.01 16.995-.696.696-3.466-.69-9.69-4.85-8.895-5.944-11.068-8-12.09-11.444-.449-1.51-.816-3.65-.816-4.755 0-4.143-5.278-5.294-11.133-2.429-4.768 2.334-11.387 9.208-14.396 14.952-2.317 4.424-2.417 4.808-2.421 9.313-.004 4.435.09 4.815 1.667 6.786 3.905 4.88 11.706 7.046 23.563 6.542 8.228-.35 22.674-2.634 26.706-4.223 1.458-.575 3.482-1.045 4.496-1.045 2.816 0 4.417-.83 5.948-3.084 2.087-3.072 1.985-8.375-.267-13.807-2.719-6.563-4.34-14.06-4.688-21.672-.375-8.248.435-11.844 3.37-14.957 2.158-2.288 2.236-2.96 1.033-8.802C82.534 6.468 77.177-.886 70.594 1.03zM52.345 54.577c0 5.073 2.201 8.02 10.042 13.442 14.032 9.702 14.738 8.551 2.307-3.757-4.851-4.803-9.615-9.293-10.585-9.976l-1.764-1.243v1.534zm35.823 21.12c-.001 2.248-.326 3.74-1.086 4.986-.595.977-1.083 1.893-1.083 2.035 0 1.29 6.848-2.029 7.332-3.553.565-1.783-.77-2.901-2.624-2.196-1.593.606-2.04-.165-.732-1.262.584-.489.481-.849-.543-1.91L88.17 72.49l-.002 3.209zm10.246-2.132c-.675.819-.63.843.477.252 1.263-.673 1.574-1.155.744-1.155-.261 0-.811.406-1.22.903zm-19.2 11.609c-.597.272-2.45.99-4.116 1.597-2.08.757-3.995 2.044-6.107 4.106-1.692 1.652-3.076 3.238-3.076 3.524 0 .86 2.834.565 5.29-.55 2.857-1.297 6.096-3.57 9.637-6.759l2.714-2.445-1.628.016c-.896.009-2.117.239-2.714.511z" fill="#AA2730"/></svg>