<svg width="207" height="142" viewBox="0 0 207 142" fill="none" xmlns="http://www.w3.org/2000/svg">
<path fill-rule="evenodd" clip-rule="evenodd" d="M70.7691 0.426423C68.5278 1.10669 67.065 2.03506 66.4641 3.1578C66.1552 3.73545 65.8138 6.60038 65.7058 9.52449C65.474 15.7859 64.9073 17.5617 58.0973 33.3696C55.5081 39.3791 53.0829 45.8028 52.7073 47.6432C52.3317 49.4842 51.8572 50.9696 51.6521 50.9441C51.4469 50.9186 50.3716 50.5185 49.2621 50.0548C47.9257 49.4967 46.5139 49.329 45.0787 49.5586C37.7112 50.7367 27.1347 61.1416 23.8697 70.4226C23.41 71.7288 23.0338 74.3951 23.0338 76.3468C23.0338 82.3286 25.9286 85.8304 33.0838 88.5047C36.0275 89.6052 37.3009 89.7192 46.6458 89.7208C56.4456 89.7219 61.986 89.1155 71.3434 87.0161C72.0897 86.8483 70.3446 87.9211 67.4656 89.3994C53.3972 96.6239 47.5164 102.731 39.6192 118.315C34.6737 128.075 33.2858 130.213 29.8248 133.404C24.9597 137.889 15.5627 140.999 6.54289 141.108C4.71635 141.131 2.12229 141.358 0.778855 141.614C-0.92772 141.939 0.136176 141.999 4.30708 141.811C15.8927 141.291 22.9019 139.419 28.3886 135.378C32.4553 132.384 35.5259 128.053 40.1354 118.809C44.842 109.369 47.6896 105.159 52.5113 100.508C56.8641 96.3107 61.1832 93.2351 66.4581 90.577L69.9864 88.799L67.6431 91.3441C66.3544 92.7438 65.4018 94.1825 65.5261 94.5408C65.6591 94.9252 66.761 95.1798 68.2108 95.1624C71.3569 95.1239 75.4942 92.7041 80.7767 87.8131C83.7828 85.0301 85.3526 84.0121 87.8375 83.2363C91.0613 82.2298 94.1411 80.1559 94.1411 78.9924C94.1411 78.5641 95.6615 78.3539 98.8907 78.336C104.776 78.304 108.665 76.9082 112.513 73.4482C116.115 70.2087 117.949 67.1309 120.988 59.224C124.091 51.151 127.423 45.9466 132.738 40.8688C142.774 31.2837 156.893 25.8433 183.975 21.1254C194.674 19.2616 205.224 16.9043 206.502 16.0921C207.187 15.6561 207.173 15.6181 206.415 15.851C204.161 16.5427 187.104 20.0477 180.99 21.0754C155.74 25.3193 139.836 31.9792 130.34 42.2858C125.358 47.6932 124.088 49.9989 118.288 64.1753C116.449 68.6685 111.979 73.7599 108.182 75.6839C104.519 77.5407 98.8727 78.418 95.889 77.595C93.5077 76.938 93.233 75.919 95.4373 75.919C98.2545 75.919 105.014 69.9052 108.081 64.6694C110.18 61.0878 109.264 61.3338 106.208 65.1721C104.712 67.0517 102.978 69.0501 102.355 69.6126C101.733 70.175 101.337 70.8189 101.476 71.0437C101.615 71.269 101.303 71.7858 100.784 72.193C99.9301 72.8624 99.9111 72.8429 100.585 71.9829C101.697 70.5654 100.794 70.833 98.5617 72.5828C94.4831 75.7795 93.854 75.546 97.1521 72.0595C107.231 61.4054 120.192 41.6517 122.341 33.6682C123.368 29.8554 123.97 22.6401 123.529 19.4565C123.17 16.8744 123.111 17.2419 123.09 22.171C123.076 25.3063 122.76 29.3374 122.386 31.129C120.55 39.9404 105.804 62.8045 95.8466 72.2804C92.9426 75.0438 92.4009 75.3544 91.4108 74.8245C89.9588 74.0471 88.1752 71.1186 88.1725 69.5078C88.1714 68.8183 87.9494 68.391 87.679 68.5577C87.0299 68.9595 84.14 60.9021 82.9957 55.4997C81.5888 48.8599 81.3217 39.8878 82.4187 36.114C83.24 33.2887 86.0713 29.111 86.7167 29.7723C87.2779 30.3467 88.2446 46.7936 88.3114 56.9036C88.37 65.7134 88.4509 66.7243 88.7907 62.8892C89.1604 58.7169 88.7017 44.787 87.8131 33.1948C87.4256 28.1398 86.861 28.7256 93.1684 27.637C96.9963 26.9763 99.6338 25.6581 102.916 22.7633C106.514 19.5911 108.254 15.8472 108.254 11.2797C108.254 8.47342 108.5 7.34634 109.346 6.2703C112.817 1.85699 119.05 5.79199 122.064 14.2988C122.503 15.5378 122.845 16.0041 122.86 15.3847C122.926 12.6343 119.126 6.65305 116.138 4.80661C114.048 3.51395 112.548 3.42871 110.504 4.48575C108.565 5.48851 107.711 7.43972 107.711 10.8682C107.711 15.5106 106.721 17.78 103.121 21.3816C101.317 23.1868 98.87 25.1179 97.6835 25.6722C95.9101 26.5013 87.5553 28.3656 87.3317 27.9823C87.2964 27.9215 86.9718 25.8731 86.6108 23.4306C85.7993 17.938 83.3524 10.0001 81.5068 6.87455C79.7134 3.83698 76.9777 1.30268 74.655 0.527402C72.5972 -0.159377 72.6906 -0.156661 70.7691 0.426423ZM70.5938 1.02959C69.7339 1.27987 68.4584 2.02203 67.7587 2.67895C66.634 3.736 66.4907 4.35383 66.5146 8.03204C66.5558 14.3548 65.2656 18.4874 58.1874 34.7062C54.8318 42.3944 53.6572 45.7094 52.9657 49.4402L52.4896 52.0071L59.3881 58.2207C68.6999 66.6092 75.409 74.2056 74.3983 75.2165C73.7024 75.9119 70.9319 74.5259 64.7081 70.3667C55.8127 64.4218 53.6398 62.3653 52.6172 58.9216C52.1694 57.4123 51.8024 55.2722 51.8024 54.1668C51.8024 50.0244 46.5242 48.8735 40.6695 51.7384C35.901 54.0718 29.282 60.9461 26.2733 66.6896C23.9555 71.1143 23.8556 71.4976 23.8518 76.0026C23.848 80.4382 23.9414 80.8177 25.5188 82.789C29.4237 87.6686 37.2254 89.8348 49.0824 89.331C57.3103 88.9819 71.7564 86.6974 75.7878 85.1083C77.2464 84.5333 79.2699 84.0626 80.2844 84.0626C83.1 84.0626 84.7007 83.2325 86.2319 80.9789C88.319 77.9066 88.217 72.604 85.9654 67.1717C83.2465 60.6095 81.6241 53.1114 81.2772 45.4998C80.9016 37.2525 81.712 33.6563 84.6475 30.5427C86.8046 28.2554 86.8833 27.5838 85.6799 21.741C82.5338 6.46791 77.1774 -0.88579 70.5938 1.02959ZM52.3452 54.5767C52.3452 59.6502 54.5463 62.5966 62.3871 68.0186C76.4186 77.7209 77.1248 76.5705 64.694 64.2622C59.843 59.4586 55.0793 54.9687 54.1093 54.2857L52.3452 53.043V54.5767ZM88.1681 75.6975C88.167 77.9446 87.8419 79.4371 87.0825 80.6825C86.4865 81.6603 85.9991 82.5762 85.9991 82.7184C85.9991 84.0089 92.8465 80.6895 93.3307 79.1651C93.8963 77.3816 92.561 76.2638 90.7068 76.969C89.1142 77.5749 88.6669 76.8039 89.9751 75.7073C90.5586 75.2181 90.456 74.8582 89.4323 73.7973L88.1703 72.4894L88.1681 75.6975ZM98.4141 73.565C97.7388 74.3837 97.7833 74.4075 98.8907 73.8174C100.154 73.1442 100.465 72.6616 99.6354 72.6616C99.3738 72.6616 98.8239 73.0682 98.4141 73.565ZM79.214 85.174C78.6169 85.446 76.7649 86.1648 75.0979 86.7712C73.0179 87.5275 71.1029 88.8153 68.9914 90.8772C67.2995 92.5293 65.9153 94.1151 65.9153 94.4007C65.9153 95.2607 68.7493 94.9659 71.2055 93.8508C74.0617 92.5537 77.3012 90.2817 80.8424 87.0921L83.5564 84.6474L81.928 84.6631C81.0324 84.6718 79.8111 84.902 79.214 85.174Z" fill="#AA2730"/>
</svg>
