<svg width="129" height="31" viewBox="0 0 129 31" fill="none" xmlns="http://www.w3.org/2000/svg">
<path fill-rule="evenodd" clip-rule="evenodd" d="M25.9198 1.93886C24.9502 2.44429 23.3362 3.28561 22.3332 3.80845C13.3509 8.48989 10.2434 9.93601 6.5276 11.1638C4.39118 11.8697 3.37974 12.1026 2.37743 12.1198C1.12514 12.1411 0.92648 11.7032 1.72964 10.6909C2.22788 10.0628 4.13756 8.41048 5.82851 7.14449C6.58086 6.58134 7.1963 6.09503 7.1963 6.06398C7.1963 5.89713 6.86268 6.10124 5.66328 7.00236C3.85938 8.35763 2.07032 9.92432 1.48284 10.6635C0.349699 12.0891 1.24296 12.662 3.8268 12.1667C4.70291 11.9989 8.28907 10.8351 9.59753 10.2941L10.2358 10.0302V10.3813C10.2358 10.5744 10.0259 11.0806 9.76908 11.5061C9.51242 11.9316 9.2064 12.534 9.08895 12.8448C8.76263 13.7093 8.98598 13.9608 10.3168 14.2271C10.8294 14.3297 10.8974 14.572 10.5347 15.0038C10.1507 15.4608 10.1585 15.6116 10.5902 16.085C10.8273 16.345 10.9231 16.5558 10.8798 16.7218C10.797 17.039 11.0402 17.334 11.3845 17.334C11.5319 17.334 11.785 17.4755 11.9472 17.6484C12.1992 17.9173 12.2358 18.0588 12.2001 18.6265C12.1382 19.6073 12.3624 19.8915 13.1979 19.8915C15.0282 19.8915 17.1748 18.8869 19.9015 16.7542C21.1004 15.8165 21.4835 15.4551 22.4833 14.318L23.3629 13.3175L23.629 13.8339C24.1585 14.8618 24.0557 17.1491 23.4197 18.4909C23.0046 19.3666 22.028 20.5185 21.2781 21.0171C20.1738 21.7514 18.7122 22.4277 17.5194 22.7565C15.5929 23.2876 13.9825 23.7874 13.1538 24.1114C11.5074 24.755 9.74136 26.2627 9.13041 27.5461C8.83582 28.1651 8.64105 30 8.86999 30C8.94014 30 9.01394 29.5886 9.03947 29.0561C9.07072 28.4023 9.16701 27.944 9.35291 27.5642C9.77686 26.6985 11.153 25.3894 12.2574 24.8014C13.2129 24.2927 15.659 23.4356 16.921 23.1673C18.5651 22.8179 20.9768 21.6327 22.0377 20.6531C23.4517 19.3471 24.2177 17.6165 24.2177 15.7273C24.2177 14.9333 23.8696 13.5385 23.6025 13.2624C23.5367 13.1944 23.6053 12.9997 23.7743 12.7753C24.6792 11.5731 25.6766 9.06412 25.6766 7.99019C25.6766 6.92539 24.8772 6.12999 23.8065 6.12962C22.7989 6.12913 21.786 7.73821 21.786 9.33924C21.786 10.3365 22.0224 11.0974 22.6805 12.2188L23.2164 13.1322L22.4579 14.0457C20.7198 16.1385 17.0689 18.7768 15.1276 19.3429C14.2284 19.6051 13.0442 19.7899 12.7871 19.7082C12.4814 19.611 12.298 18.93 12.4253 18.3647C12.5065 18.0043 12.4817 17.8786 12.2923 17.6888C12.0558 17.452 11.9853 17.2136 12.1507 17.2103C12.3671 17.2061 13.2075 16.3607 13.0841 16.2713C13.0124 16.2195 12.9223 16.0915 12.884 15.9868C12.7398 15.5935 10.9487 15.3289 10.6249 15.6533C10.335 15.9436 10.47 15.3702 10.7778 15.0038C10.9422 14.8081 11.0484 14.574 11.0137 14.4835C10.971 14.372 11.0888 14.2931 11.3793 14.2386C11.9359 14.134 12.0441 13.9392 11.7006 13.6606C11.2538 13.2981 10.3574 13.4376 10.3574 13.8695C10.3574 14.0044 10.2724 14.0306 10.0231 13.9726C9.55035 13.8627 9.1416 13.5844 9.1416 13.3724C9.1416 13.1612 9.55279 12.2882 10.0544 11.434C10.249 11.1029 10.4378 10.62 10.4739 10.3609C10.5372 9.908 10.5749 9.87438 11.4516 9.49002C13.5366 8.57599 27.5694 1.4444 27.9198 1.12093C28.2625 0.804401 27.49 1.12032 25.9198 1.93886ZM24.708 6.55771C25.5914 7.01527 25.6734 8.21574 24.9474 10.0662C24.4075 11.4424 23.5627 12.8729 23.3349 12.7968C23.0575 12.7043 22.1702 10.8477 22.037 10.0811C21.8198 8.83175 22.3118 7.22998 23.1045 6.60533C23.463 6.32278 24.2116 6.30061 24.708 6.55771ZM11.5025 13.7542C11.8722 13.8963 11.6903 14.0457 11.1477 14.0457C10.6372 14.0457 10.4885 13.955 10.6817 13.7615C10.7828 13.6601 11.2469 13.6559 11.5025 13.7542ZM12.5423 15.9573C12.5777 15.9965 12.3392 15.9934 12.0121 15.9506C11.6852 15.9076 11.2749 15.866 11.1003 15.8581C10.7951 15.8442 10.7969 15.8405 11.1477 15.7608C11.4983 15.6813 12.4095 15.8095 12.5423 15.9573ZM11.8627 16.1766L12.4563 16.2576L12.0755 16.4895C11.8515 16.626 11.6948 16.8224 11.6948 16.9668C11.6948 17.2225 11.5042 17.2804 11.2318 17.1074C11.1274 17.0411 11.1011 16.8932 11.1553 16.6768C11.2166 16.4324 11.1792 16.3 11.0104 16.1644C10.79 15.9873 10.7905 15.9834 11.0261 16.0386C11.1598 16.0699 11.5364 16.132 11.8627 16.1766ZM12.3822 16.7967C12.1275 16.9702 11.8931 17.086 11.8614 17.0542C11.7705 16.9632 12.4351 16.4814 12.6513 16.4814C12.7599 16.4814 12.6413 16.6204 12.3822 16.7967Z" fill="white" stroke="white" stroke-width="0.5"/>
<path d="M38.94 7.84V8.24C38.4867 8.25333 38.14 8.30667 37.9 8.4C37.6733 8.48 37.52 8.64 37.44 8.88C37.36 9.10667 37.32 9.46667 37.32 9.96V19.88C37.32 20.36 37.36 20.72 37.44 20.96C37.52 21.2 37.6733 21.36 37.9 21.44C38.14 21.52 38.4867 21.5733 38.94 21.6V22C38.6333 21.9733 38.2467 21.96 37.78 21.96C37.3267 21.9467 36.8667 21.94 36.4 21.94C35.88 21.94 35.3933 21.9467 34.94 21.96C34.4867 21.96 34.12 21.9733 33.84 22V21.6C34.2933 21.5733 34.6333 21.52 34.86 21.44C35.1 21.36 35.26 21.2 35.34 20.96C35.42 20.72 35.46 20.36 35.46 19.88V9.96C35.46 9.46667 35.42 9.10667 35.34 8.88C35.26 8.64 35.1 8.48 34.86 8.4C34.6333 8.30667 34.2933 8.25333 33.84 8.24V7.84C34.12 7.85333 34.4867 7.86667 34.94 7.88C35.3933 7.89333 35.88 7.9 36.4 7.9C36.8667 7.9 37.3267 7.89333 37.78 7.88C38.2467 7.86667 38.6333 7.85333 38.94 7.84ZM46.5773 11.42C46.9373 11.42 47.2507 11.4933 47.5173 11.64C47.7973 11.7867 48.0107 11.98 48.1573 12.22C48.3173 12.4467 48.3973 12.7067 48.3973 13C48.3973 13.3333 48.2907 13.6267 48.0773 13.88C47.8773 14.1333 47.604 14.26 47.2573 14.26C46.9773 14.26 46.7307 14.1733 46.5173 14C46.304 13.8133 46.1973 13.5533 46.1973 13.22C46.1973 12.9667 46.264 12.7533 46.3973 12.58C46.544 12.3933 46.704 12.2467 46.8773 12.14C46.784 12.0067 46.644 11.94 46.4573 11.94C46.044 11.94 45.664 12.0667 45.3173 12.32C44.9707 12.56 44.6773 12.8733 44.4373 13.26C44.1973 13.6467 44.0107 14.06 43.8773 14.5C43.744 14.9267 43.6773 15.3267 43.6773 15.7V19.94C43.6773 20.5933 43.864 21.0333 44.2373 21.26C44.624 21.4733 45.144 21.58 45.7973 21.58V22C45.4907 21.9867 45.0573 21.9733 44.4973 21.96C43.9373 21.9333 43.344 21.92 42.7173 21.92C42.264 21.92 41.8107 21.9333 41.3573 21.96C40.9173 21.9733 40.584 21.9867 40.3573 22V21.58C40.904 21.58 41.2907 21.48 41.5173 21.28C41.7573 21.08 41.8773 20.7 41.8773 20.14V13.88C41.8773 13.28 41.7707 12.84 41.5573 12.56C41.344 12.2667 40.944 12.12 40.3573 12.12V11.7C40.784 11.74 41.1973 11.76 41.5973 11.76C41.984 11.76 42.3507 11.74 42.6973 11.7C43.0573 11.6467 43.384 11.5733 43.6773 11.48V13.98C43.824 13.5933 44.0307 13.2067 44.2973 12.82C44.5773 12.42 44.9107 12.0867 45.2973 11.82C45.684 11.5533 46.1107 11.42 46.5773 11.42ZM53.733 11.42C54.9063 11.42 55.8196 11.78 56.473 12.5C57.1396 13.2067 57.473 14.3133 57.473 15.82H50.413L50.393 15.44H55.553C55.5796 14.7867 55.5263 14.1867 55.393 13.64C55.2596 13.08 55.0463 12.6333 54.753 12.3C54.473 11.9667 54.1063 11.8 53.653 11.8C53.0396 11.8 52.493 12.1067 52.013 12.72C51.5463 13.3333 51.2663 14.3067 51.173 15.64L51.233 15.72C51.2063 15.92 51.1863 16.14 51.173 16.38C51.1596 16.62 51.153 16.86 51.153 17.1C51.153 18.0067 51.2996 18.7867 51.593 19.44C51.8863 20.0933 52.2663 20.5933 52.733 20.94C53.213 21.2733 53.7063 21.44 54.213 21.44C54.613 21.44 54.993 21.38 55.353 21.26C55.713 21.1267 56.0463 20.9133 56.353 20.62C56.6596 20.3267 56.9263 19.9333 57.153 19.44L57.553 19.6C57.4063 20.04 57.1663 20.4667 56.833 20.88C56.4996 21.2933 56.0796 21.6333 55.573 21.9C55.0663 22.1533 54.4796 22.28 53.813 22.28C52.853 22.28 52.0263 22.06 51.333 21.62C50.653 21.18 50.1263 20.5733 49.753 19.8C49.393 19.0133 49.213 18.1133 49.213 17.1C49.213 15.9267 49.3996 14.92 49.773 14.08C50.1463 13.2267 50.673 12.5733 51.353 12.12C52.033 11.6533 52.8263 11.42 53.733 11.42ZM65.7102 11.42C66.2168 11.42 66.6368 11.4867 66.9702 11.62C67.3168 11.7533 67.6035 11.94 67.8302 12.18C68.0835 12.4467 68.2635 12.78 68.3702 13.18C68.4768 13.58 68.5302 14.12 68.5302 14.8V20.14C68.5302 20.7 68.6435 21.08 68.8702 21.28C69.1102 21.48 69.5035 21.58 70.0502 21.58V22C69.8235 21.9867 69.4768 21.9733 69.0102 21.96C68.5435 21.9333 68.0902 21.92 67.6502 21.92C67.2102 21.92 66.7768 21.9333 66.3502 21.96C65.9368 21.9733 65.6235 21.9867 65.4102 22V21.58C65.8902 21.58 66.2302 21.48 66.4302 21.28C66.6302 21.08 66.7302 20.7 66.7302 20.14V14.36C66.7302 13.9467 66.6968 13.5667 66.6302 13.22C66.5635 12.8733 66.4102 12.5933 66.1702 12.38C65.9435 12.1667 65.5902 12.06 65.1102 12.06C64.5502 12.06 64.0568 12.22 63.6302 12.54C63.2168 12.86 62.8902 13.3 62.6502 13.86C62.4235 14.4067 62.3102 15.02 62.3102 15.7V20.14C62.3102 20.7 62.4102 21.08 62.6102 21.28C62.8102 21.48 63.1502 21.58 63.6302 21.58V22C63.4168 21.9867 63.0968 21.9733 62.6702 21.96C62.2568 21.9333 61.8302 21.92 61.3902 21.92C60.9502 21.92 60.4968 21.9333 60.0302 21.96C59.5635 21.9733 59.2168 21.9867 58.9902 22V21.58C59.5368 21.58 59.9235 21.48 60.1502 21.28C60.3902 21.08 60.5102 20.7 60.5102 20.14V13.88C60.5102 13.28 60.4035 12.84 60.1902 12.56C59.9768 12.2667 59.5768 12.12 58.9902 12.12V11.7C59.4168 11.74 59.8302 11.76 60.2302 11.76C60.6168 11.76 60.9835 11.74 61.3302 11.7C61.6902 11.6467 62.0168 11.5733 62.3102 11.48V13.84C62.6568 12.9333 63.1368 12.3067 63.7502 11.96C64.3768 11.6 65.0302 11.42 65.7102 11.42ZM73.7638 22.14C73.2171 22.14 72.7438 22.04 72.3438 21.84C71.9438 21.6267 71.6371 21.3333 71.4238 20.96C71.2238 20.5867 71.1238 20.1533 71.1238 19.66C71.1238 19.0733 71.2571 18.5933 71.5238 18.22C71.8038 17.8467 72.1571 17.5467 72.5838 17.32C73.0104 17.0933 73.4571 16.9067 73.9238 16.76C74.4038 16.6 74.8571 16.4533 75.2838 16.32C75.7104 16.1733 76.0571 16.0067 76.3238 15.82C76.6038 15.6333 76.7438 15.3867 76.7438 15.08V13.84C76.7438 13.28 76.6571 12.8533 76.4838 12.56C76.3238 12.2667 76.1038 12.0733 75.8238 11.98C75.5438 11.8733 75.2304 11.82 74.8838 11.82C74.5504 11.82 74.1904 11.8667 73.8038 11.96C73.4304 12.0533 73.1304 12.2467 72.9038 12.54C73.1571 12.5933 73.3771 12.7267 73.5638 12.94C73.7504 13.1533 73.8438 13.4267 73.8438 13.76C73.8438 14.0933 73.7371 14.36 73.5238 14.56C73.3104 14.7467 73.0371 14.84 72.7038 14.84C72.3171 14.84 72.0304 14.72 71.8438 14.48C71.6704 14.2267 71.5838 13.9467 71.5838 13.64C71.5838 13.2933 71.6704 13.0133 71.8438 12.8C72.0171 12.5867 72.2371 12.3867 72.5038 12.2C72.8104 11.9867 73.2038 11.8067 73.6838 11.66C74.1771 11.5 74.7304 11.42 75.3438 11.42C75.8904 11.42 76.3571 11.4867 76.7438 11.62C77.1304 11.74 77.4504 11.92 77.7038 12.16C78.0504 12.48 78.2771 12.8733 78.3838 13.34C78.4904 13.7933 78.5438 14.34 78.5438 14.98V20.54C78.5438 20.8733 78.5904 21.1133 78.6838 21.26C78.7904 21.4067 78.9504 21.48 79.1638 21.48C79.3104 21.48 79.4504 21.4467 79.5838 21.38C79.7171 21.3133 79.8771 21.2067 80.0638 21.06L80.2838 21.4C80.0038 21.6133 79.7371 21.7933 79.4838 21.94C79.2304 22.0733 78.8904 22.14 78.4638 22.14C78.0771 22.14 77.7571 22.0733 77.5038 21.94C77.2504 21.8067 77.0571 21.6133 76.9238 21.36C76.8038 21.0933 76.7438 20.76 76.7438 20.36C76.3838 20.96 75.9504 21.4067 75.4438 21.7C74.9504 21.9933 74.3904 22.14 73.7638 22.14ZM74.4838 21.34C74.9238 21.34 75.3304 21.2133 75.7038 20.96C76.0904 20.7067 76.4371 20.3267 76.7438 19.82V15.9C76.5838 16.1267 76.3504 16.32 76.0438 16.48C75.7371 16.6267 75.4038 16.78 75.0438 16.94C74.6838 17.0867 74.3371 17.2667 74.0038 17.48C73.6838 17.68 73.4171 17.9467 73.2038 18.28C72.9904 18.6133 72.8838 19.0467 72.8838 19.58C72.8838 20.1133 73.0238 20.54 73.3038 20.86C73.5971 21.18 73.9904 21.34 74.4838 21.34ZM90.1708 7.62C90.8374 7.62 91.3441 7.7 91.6908 7.86C92.0374 8.00667 92.3441 8.17333 92.6108 8.36C92.7708 8.45333 92.8974 8.52667 92.9908 8.58C93.0974 8.62 93.1974 8.64 93.2908 8.64C93.4241 8.64 93.5174 8.56667 93.5708 8.42C93.6374 8.27333 93.6908 8.05333 93.7308 7.76H94.1908C94.1774 7.98667 94.1574 8.26 94.1308 8.58C94.1174 8.88667 94.1041 9.3 94.0908 9.82C94.0908 10.3267 94.0908 11 94.0908 11.84H93.6308C93.5908 11.2 93.4508 10.5867 93.2108 10C92.9708 9.41333 92.6174 8.93333 92.1508 8.56C91.6974 8.18667 91.0974 8 90.3508 8C89.6441 8 89.0574 8.21333 88.5908 8.64C88.1374 9.06667 87.9108 9.62667 87.9108 10.32C87.9108 10.92 88.0641 11.4267 88.3708 11.84C88.6774 12.24 89.0841 12.6067 89.5908 12.94C90.1108 13.26 90.6708 13.6067 91.2708 13.98C91.9641 14.4067 92.5774 14.8333 93.1108 15.26C93.6574 15.6733 94.0841 16.1333 94.3908 16.64C94.7108 17.1467 94.8708 17.76 94.8708 18.48C94.8708 19.3333 94.6774 20.04 94.2908 20.6C93.9041 21.16 93.3908 21.58 92.7508 21.86C92.1108 22.14 91.4041 22.28 90.6308 22.28C89.9241 22.28 89.3641 22.2 88.9508 22.04C88.5374 21.88 88.1841 21.7133 87.8908 21.54C87.5974 21.3533 87.3708 21.26 87.2108 21.26C87.0774 21.26 86.9774 21.3333 86.9108 21.48C86.8574 21.6267 86.8108 21.8467 86.7708 22.14H86.3108C86.3374 21.86 86.3508 21.5333 86.3508 21.16C86.3641 20.7733 86.3708 20.2733 86.3708 19.66C86.3841 19.0467 86.3908 18.2733 86.3908 17.34H86.8508C86.9041 18.14 87.0508 18.8867 87.2908 19.58C87.5441 20.2733 87.9241 20.8333 88.4308 21.26C88.9508 21.6733 89.6374 21.88 90.4908 21.88C90.9308 21.88 91.3441 21.7933 91.7308 21.62C92.1308 21.4333 92.4574 21.1467 92.7108 20.76C92.9641 20.36 93.0908 19.8467 93.0908 19.22C93.0908 18.6733 92.9574 18.2 92.6908 17.8C92.4374 17.3867 92.0774 17.0067 91.6108 16.66C91.1441 16.3 90.5974 15.9333 89.9708 15.56C89.3441 15.1733 88.7574 14.78 88.2108 14.38C87.6641 13.98 87.2241 13.52 86.8908 13C86.5708 12.4667 86.4108 11.8267 86.4108 11.08C86.4108 10.2933 86.5841 9.64667 86.9308 9.14C87.2908 8.62 87.7574 8.24 88.3308 8C88.9041 7.74667 89.5174 7.62 90.1708 7.62ZM99.6516 8.38V11.72H102.612V12.12H99.6516V19.86C99.6516 20.4867 99.7649 20.9267 99.9916 21.18C100.218 21.4333 100.532 21.56 100.932 21.56C101.332 21.56 101.678 21.4 101.972 21.08C102.265 20.7467 102.518 20.1933 102.732 19.42L103.132 19.52C102.998 20.2933 102.732 20.9467 102.332 21.48C101.945 22.0133 101.345 22.28 100.532 22.28C100.078 22.28 99.7049 22.22 99.4116 22.1C99.1182 21.9933 98.8582 21.8333 98.6316 21.62C98.3382 21.3133 98.1316 20.9467 98.0116 20.52C97.9049 20.0933 97.8516 19.5267 97.8516 18.82V12.12H95.9316V11.72H97.8516V8.66C98.1849 8.64667 98.5049 8.62 98.8116 8.58C99.1182 8.54 99.3982 8.47333 99.6516 8.38ZM112.802 11.7V12.1C112.549 12.1267 112.315 12.24 112.102 12.44C111.889 12.64 111.689 12.9933 111.502 13.5L108.222 22.1H107.882L104.202 13.24C103.949 12.72 103.695 12.4067 103.442 12.3C103.202 12.18 103.002 12.12 102.842 12.12V11.7C103.135 11.74 103.442 11.7733 103.762 11.8C104.082 11.8133 104.429 11.82 104.802 11.82C105.215 11.82 105.649 11.8067 106.102 11.78C106.569 11.7533 107.002 11.7267 107.402 11.7V12.12C107.069 12.12 106.769 12.1467 106.502 12.2C106.249 12.24 106.089 12.38 106.022 12.62C105.955 12.8467 106.035 13.24 106.262 13.8L108.722 19.9L108.602 19.94L110.882 13.98C111.055 13.54 111.122 13.1933 111.082 12.94C111.055 12.6733 110.922 12.4733 110.682 12.34C110.442 12.2067 110.082 12.1267 109.602 12.1V11.7C109.842 11.7133 110.049 11.7267 110.222 11.74C110.395 11.74 110.562 11.7467 110.722 11.76C110.895 11.76 111.082 11.76 111.282 11.76C111.589 11.76 111.862 11.7533 112.102 11.74C112.355 11.7267 112.589 11.7133 112.802 11.7ZM108.222 22.1L107.542 23.84C107.409 24.1733 107.269 24.4533 107.122 24.68C106.989 24.9067 106.842 25.0933 106.682 25.24C106.469 25.44 106.215 25.5733 105.922 25.64C105.629 25.72 105.362 25.76 105.122 25.76C104.869 25.76 104.635 25.7133 104.422 25.62C104.222 25.5267 104.062 25.3867 103.942 25.2C103.822 25.0267 103.762 24.8133 103.762 24.56C103.762 24.24 103.855 23.98 104.042 23.78C104.229 23.5933 104.489 23.5 104.822 23.5C105.102 23.5 105.342 23.58 105.542 23.74C105.742 23.9 105.842 24.1333 105.842 24.44C105.842 24.6667 105.789 24.8533 105.682 25C105.575 25.1467 105.449 25.26 105.302 25.34C105.329 25.3533 105.349 25.36 105.362 25.36C105.389 25.36 105.409 25.36 105.422 25.36C105.782 25.36 106.102 25.2333 106.382 24.98C106.662 24.74 106.909 24.3467 107.122 23.8L107.842 21.94L108.222 22.1ZM116.252 6.32V20.14C116.252 20.7 116.366 21.08 116.592 21.28C116.832 21.48 117.226 21.58 117.772 21.58V22C117.546 21.9867 117.199 21.9733 116.732 21.96C116.279 21.9333 115.819 21.92 115.352 21.92C114.899 21.92 114.439 21.9333 113.972 21.96C113.506 21.9733 113.159 21.9867 112.932 22V21.58C113.479 21.58 113.866 21.48 114.092 21.28C114.332 21.08 114.452 20.7 114.452 20.14V8.72C114.452 8.12 114.346 7.68 114.132 7.4C113.919 7.10667 113.519 6.96 112.932 6.96V6.54C113.359 6.58 113.772 6.6 114.172 6.6C114.559 6.6 114.926 6.58 115.272 6.54C115.632 6.48667 115.959 6.41333 116.252 6.32ZM123.46 11.42C124.633 11.42 125.546 11.78 126.2 12.5C126.866 13.2067 127.2 14.3133 127.2 15.82H120.14L120.12 15.44H125.28C125.306 14.7867 125.253 14.1867 125.12 13.64C124.986 13.08 124.773 12.6333 124.48 12.3C124.2 11.9667 123.833 11.8 123.38 11.8C122.766 11.8 122.22 12.1067 121.74 12.72C121.273 13.3333 120.993 14.3067 120.9 15.64L120.96 15.72C120.933 15.92 120.913 16.14 120.9 16.38C120.886 16.62 120.88 16.86 120.88 17.1C120.88 18.0067 121.026 18.7867 121.32 19.44C121.613 20.0933 121.993 20.5933 122.46 20.94C122.94 21.2733 123.433 21.44 123.94 21.44C124.34 21.44 124.72 21.38 125.08 21.26C125.44 21.1267 125.773 20.9133 126.08 20.62C126.386 20.3267 126.653 19.9333 126.88 19.44L127.28 19.6C127.133 20.04 126.893 20.4667 126.56 20.88C126.226 21.2933 125.806 21.6333 125.3 21.9C124.793 22.1533 124.206 22.28 123.54 22.28C122.58 22.28 121.753 22.06 121.06 21.62C120.38 21.18 119.853 20.5733 119.48 19.8C119.12 19.0133 118.94 18.1133 118.94 17.1C118.94 15.9267 119.126 14.92 119.5 14.08C119.873 13.2267 120.4 12.5733 121.08 12.12C121.76 11.6533 122.553 11.42 123.46 11.42Z" fill="white"/>
</svg>
